<?xml version="1.0" encoding="utf-8"?>
<!-- Generator: Adobe Illustrator 16.0.3, SVG Export Plug-In . SVG Version: 6.00 Build 0)  -->
<!DOCTYPE svg PUBLIC "-//W3C//DTD SVG 1.0//EN" "http://www.w3.org/TR/2001/REC-SVG-20010904/DTD/svg10.dtd">
<svg version="1.0" id="Warstwa_1" xmlns="http://www.w3.org/2000/svg" xmlns:xlink="http://www.w3.org/1999/xlink" x="0px" y="0px"
	 width="371px" height="240.95px" viewBox="0 0 371 240.95" enable-background="new 0 0 371 240.95" xml:space="preserve">
<path fill="#00A7D4" d="M60.193,139.709H43.251v48.306H31.227v-48.306H14.281v-9.671h45.912V139.709z"/>
<path fill="#00A7D4" d="M79.49,139.432v14.898h19.336v9.069H79.49v15.226h24.85v9.39H67.421v-57.977h36.919v9.394H79.49z"/>
<path fill="#00A7D4" d="M151.564,173.748c0.666,0,1.227,0.245,1.676,0.724l4.756,5.075c-2.345,2.979-5.256,5.24-8.733,6.789
	c-3.472,1.545-7.609,2.318-12.404,2.318c-4.339,0-8.239-0.738-11.704-2.215c-3.462-1.484-6.408-3.542-8.83-6.174
	c-2.428-2.64-4.289-5.766-5.596-9.394c-1.305-3.621-1.956-7.579-1.956-11.868c0-2.874,0.315-5.615,0.94-8.207
	c0.621-2.596,1.541-4.99,2.738-7.173c1.198-2.187,2.637-4.15,4.33-5.914c1.691-1.756,3.606-3.255,5.736-4.497
	c2.131-1.229,4.451-2.179,6.969-2.832c2.519-0.651,5.207-0.981,8.052-0.981c2.131,0,4.151,0.185,6.054,0.559
	c1.904,0.382,3.685,0.897,5.334,1.563c1.656,0.667,3.176,1.472,4.576,2.418c1.396,0.946,2.658,1.977,3.775,3.096l-4.037,5.514
	c-0.243,0.347-0.543,0.654-0.917,0.919c-0.372,0.266-0.881,0.401-1.519,0.401c-0.639,0-1.284-0.229-1.936-0.68
	c-0.654-0.452-1.455-0.961-2.403-1.521c-0.938-0.561-2.13-1.07-3.55-1.521c-1.426-0.452-3.233-0.673-5.412-0.673
	c-2.432,0-4.654,0.438-6.678,1.313c-2.02,0.881-3.764,2.157-5.212,3.82c-1.454,1.663-2.579,3.707-3.376,6.132
	c-0.805,2.422-1.196,5.175-1.196,8.265c0,3.119,0.431,5.895,1.297,8.332c0.86,2.439,2.05,4.496,3.556,6.178
	c1.506,1.675,3.264,2.952,5.27,3.811c2.017,0.869,4.166,1.301,6.453,1.301c1.361,0,2.588-0.066,3.699-0.203
	c1.105-0.128,2.133-0.358,3.078-0.675c0.945-0.321,1.834-0.729,2.674-1.237c0.839-0.511,1.686-1.146,2.539-1.923
	c0.293-0.237,0.596-0.438,0.916-0.594C150.847,173.834,151.191,173.748,151.564,173.748z"/>
<path fill="#00A7D4" d="M214.411,130.647v57.979h-12.068v-24.976h-25.532v24.976h-12.06v-57.979h12.06v24.616h25.532v-24.616
	H214.411z"/>
<path fill="#00A7D4" d="M276.22,130.038v57.977h-6.19c-0.938,0-1.72-0.157-2.359-0.457c-0.636-0.309-1.26-0.834-1.878-1.579
	l-28.888-36.76c0.085,0.931,0.143,1.85,0.178,2.758c0.046,0.906,0.067,1.745,0.067,2.517v33.521h-10.593v-57.977h6.311
	c0.509,0,0.945,0.022,1.299,0.065c0.366,0.033,0.686,0.134,0.981,0.277c0.293,0.144,0.573,0.337,0.838,0.582
	c0.267,0.235,0.561,0.558,0.882,0.953l29.083,36.919c-0.108-1.01-0.187-1.991-0.235-2.93c-0.051-0.948-0.08-1.852-0.08-2.706
	v-33.161H276.22z"/>
<path fill="#00A7D4" d="M300.432,188.015h-12.061v-57.977h12.061V188.015z"/>
<path fill="#00A7D4" d="M352.05,173.748c0.667,0,1.228,0.245,1.679,0.724l4.754,5.075c-2.336,2.979-5.248,5.24-8.726,6.789
	c-3.479,1.545-7.609,2.318-12.406,2.318c-4.344,0-8.247-0.738-11.708-2.215c-3.465-1.484-6.402-3.542-8.834-6.174
	c-2.417-2.64-4.279-5.766-5.587-9.394c-1.305-3.621-1.961-7.579-1.961-11.868c0-2.874,0.313-5.615,0.938-8.207
	c0.629-2.596,1.542-4.99,2.737-7.173c1.2-2.187,2.646-4.15,4.339-5.914c1.685-1.756,3.602-3.255,5.729-4.497
	c2.136-1.229,4.46-2.179,6.977-2.832c2.516-0.651,5.199-0.981,8.043-0.981c2.139,0,4.154,0.185,6.06,0.559
	c1.9,0.382,3.68,0.897,5.336,1.563c1.647,0.667,3.17,1.472,4.568,2.418c1.404,0.946,2.658,1.977,3.776,3.096l-4.035,5.514
	c-0.237,0.347-0.546,0.654-0.918,0.919c-0.372,0.266-0.873,0.401-1.521,0.401c-0.631,0-1.283-0.229-1.936-0.68
	c-0.654-0.452-1.447-0.961-2.394-1.521c-0.949-0.561-2.138-1.07-3.558-1.521c-1.426-0.452-3.234-0.673-5.414-0.673
	c-2.423,0-4.646,0.438-6.675,1.313c-2.021,0.881-3.765,2.157-5.215,3.82c-1.445,1.663-2.57,3.707-3.375,6.132
	c-0.796,2.422-1.195,5.175-1.195,8.265c0,3.119,0.432,5.895,1.297,8.332c0.868,2.439,2.049,4.496,3.555,6.178
	c1.507,1.675,3.263,2.952,5.276,3.811c2.01,0.869,4.159,1.301,6.454,1.301c1.356,0,2.59-0.066,3.691-0.203
	c1.105-0.128,2.133-0.358,3.077-0.675c0.946-0.321,1.837-0.729,2.674-1.237c0.847-0.511,1.687-1.146,2.541-1.923
	c0.291-0.237,0.599-0.438,0.914-0.594C351.332,173.834,351.679,173.748,352.05,173.748z"/>
<linearGradient id="SVGID_1_" gradientUnits="userSpaceOnUse" x1="105.3223" y1="57.6563" x2="171.4297" y2="57.6563">
	<stop  offset="0.0197" style="stop-color:#00A588"/>
	<stop  offset="0.3399" style="stop-color:#00A588"/>
</linearGradient>
<path fill="url(#SVGID_1_)" d="M154.074,84.212c-1.567-1.108-6.419-1.151-6.419-1.151h-13.691l24.44-41.803l13.025-22.449
	c-0.795-0.392-1.702-0.657-2.834-0.657h-13.884l0.036,0.192l-0.51-0.192l-48.916,79.01h51.951l-1.346-8.609
	C155.928,88.552,155.528,85.244,154.074,84.212z"/>
<linearGradient id="SVGID_2_" gradientUnits="userSpaceOnUse" x1="164.1152" y1="57.6563" x2="256.8564" y2="57.6563">
	<stop  offset="0.0197" style="stop-color:#00A588"/>
	<stop  offset="0.2217" style="stop-color:#00A588"/>
	<stop  offset="0.2884" style="stop-color:#00AB9F"/>
	<stop  offset="0.363" style="stop-color:#00B1B2"/>
	<stop  offset="0.4393" style="stop-color:#15B5C0"/>
	<stop  offset="0.5176" style="stop-color:#27B8C9"/>
	<stop  offset="0.6011" style="stop-color:#2CB8CB"/>
	<stop  offset="0.9395" style="stop-color:#00AFE2"/>
</linearGradient>
<path fill="url(#SVGID_2_)" d="M242.865,18.151c-0.724,0-1.421,0.115-2.109,0.328c-0.687,0.216-1.309,0.501-1.867,0.835
	c-0.567,0.354-1.052,0.756-1.471,1.226c-0.42,0.475-0.7,0.958-0.844,1.463l-15.615,42.566c-0.43,1.301-0.88,2.692-1.352,4.179
	c-0.423,1.315-0.858,2.718-1.302,4.151l-4.645-32.576c-0.322-1.116-0.933-2.042-1.819-2.764c-0.878-0.726-2.081-1.089-3.598-1.089
	h-4.124c-0.721,0-1.407,0.115-2.06,0.331c-0.653,0.214-1.246,0.509-1.791,0.865c-0.542,0.358-1.009,0.778-1.409,1.246
	c-0.398,0.472-0.711,0.944-0.924,1.41l-9.76,25.698c0-0.016-0.015-0.038-0.021-0.052c-0.379,0.925-0.767,1.825-1.145,2.851
	c-0.337,0.938-0.667,1.931-1.004,2.911l-0.545,1.438c0.023-0.007,0.044-0.016,0.06-0.022c-0.051,0.164-0.11,0.308-0.165,0.473
	c-0.107-1.657-0.214-3.249-0.322-4.766c-0.106-1.522-0.222-2.947-0.321-4.285l-5.54-42.566c-0.136-0.903-0.573-1.626-1.167-2.257
	l-13.891,23.948l8.66,53.467h15.942c0,0,7.888-20.128,7.918-20.077l4.45-11.495c0.355-0.83,0.711-1.714,1.053-2.652
	c0.342-0.937,0.715-1.934,1.115-2.985c0.107,1.052,0.224,2.049,0.352,2.985c0.129,0.938,0.259,1.822,0.407,2.652l0.622,4.289h-0.006
	l3.972,27.283h16.052l32.204-79.01H242.865z"/>
<g>
	<linearGradient id="SVGID_3_" gradientUnits="userSpaceOnUse" x1="16.2319" y1="215.4434" x2="23.7979" y2="215.4434">
		<stop  offset="0.0197" style="stop-color:#00A588"/>
		<stop  offset="0.3399" style="stop-color:#00A588"/>
	</linearGradient>
	<path fill="url(#SVGID_3_)" d="M17.564,211.819c0.223-0.593,0.479-1.119,0.768-1.579c0.287-0.462,0.619-0.852,0.996-1.172
		c0.374-0.319,0.794-0.565,1.257-0.736c0.462-0.168,0.978-0.254,1.546-0.254c0.301,0,0.598,0.027,0.891,0.079
		c0.295,0.055,0.551,0.148,0.776,0.284l-0.117,0.962c-0.05,0.155-0.141,0.23-0.276,0.23c-0.118,0-0.297-0.032-0.535-0.101
		c-0.242-0.067-0.555-0.102-0.945-0.102c-0.565,0-1.066,0.085-1.5,0.255c-0.436,0.17-0.825,0.424-1.171,0.765
		c-0.347,0.341-0.648,0.759-0.906,1.258c-0.257,0.5-0.495,1.076-0.712,1.727v9.372h-1.403v-14.482h0.747
		c0.166,0,0.283,0.034,0.351,0.103c0.068,0.067,0.111,0.183,0.132,0.348L17.564,211.819z"/>
	<linearGradient id="SVGID_4_" gradientUnits="userSpaceOnUse" x1="24.8813" y1="215.5449" x2="37.2319" y2="215.5449">
		<stop  offset="0.0197" style="stop-color:#00A588"/>
		<stop  offset="0.3399" style="stop-color:#00A588"/>
	</linearGradient>
	<path fill="url(#SVGID_4_)" d="M26.257,214.992v0.274c0,1.088,0.126,2.046,0.38,2.871c0.254,0.822,0.615,1.517,1.083,2.073
		c0.469,0.557,1.036,0.978,1.698,1.258c0.664,0.283,1.405,0.424,2.224,0.424c0.732,0,1.366-0.081,1.902-0.241
		c0.537-0.159,0.988-0.339,1.354-0.539c0.365-0.197,0.656-0.378,0.871-0.538c0.216-0.16,0.371-0.239,0.468-0.239
		c0.128,0,0.225,0.047,0.295,0.146l0.378,0.464c-0.233,0.291-0.545,0.563-0.929,0.815c-0.386,0.252-0.815,0.468-1.288,0.647
		c-0.475,0.18-0.982,0.324-1.522,0.432c-0.541,0.104-1.085,0.158-1.632,0.158c-0.995,0-1.903-0.174-2.722-0.518
		c-0.822-0.343-1.523-0.846-2.106-1.506c-0.586-0.661-1.039-1.467-1.356-2.423c-0.316-0.957-0.475-2.052-0.475-3.285
		c0-1.036,0.149-1.995,0.446-2.872c0.297-0.879,0.727-1.635,1.288-2.271c0.563-0.636,1.25-1.132,2.063-1.491
		c0.817-0.359,1.742-0.539,2.775-0.539c0.819,0,1.581,0.142,2.282,0.424c0.704,0.28,1.314,0.688,1.83,1.229
		c0.518,0.539,0.925,1.2,1.222,1.986c0.297,0.784,0.445,1.688,0.445,2.707c0,0.213-0.029,0.359-0.086,0.437
		c-0.057,0.077-0.157,0.116-0.293,0.116H26.257z M35.974,214.104c0-0.776-0.107-1.472-0.328-2.088
		c-0.221-0.617-0.53-1.139-0.929-1.564c-0.402-0.428-0.876-0.755-1.43-0.981c-0.549-0.229-1.155-0.343-1.822-0.343
		c-0.749,0-1.423,0.115-2.018,0.349c-0.596,0.233-1.109,0.567-1.545,1.004c-0.433,0.438-0.782,0.962-1.046,1.572
		c-0.264,0.611-0.437,1.297-0.526,2.052H35.974z"/>
	<linearGradient id="SVGID_5_" gradientUnits="userSpaceOnUse" x1="39.9272" y1="215.5664" x2="49.6738" y2="215.5664">
		<stop  offset="0.0197" style="stop-color:#00A588"/>
		<stop  offset="0.3399" style="stop-color:#00A588"/>
	</linearGradient>
	<path fill="url(#SVGID_5_)" d="M49.03,210.115c-0.078,0.138-0.189,0.204-0.336,0.204c-0.107,0-0.245-0.061-0.411-0.183
		c-0.165-0.119-0.388-0.255-0.665-0.407c-0.278-0.148-0.623-0.284-1.033-0.406c-0.409-0.121-0.908-0.183-1.492-0.183
		c-0.528,0-1.007,0.075-1.44,0.225c-0.437,0.151-0.806,0.352-1.114,0.605c-0.307,0.252-0.542,0.547-0.712,0.881
		c-0.165,0.335-0.248,0.686-0.248,1.055c0,0.456,0.118,0.836,0.351,1.135c0.235,0.303,0.541,0.559,0.916,0.771
		c0.375,0.215,0.806,0.398,1.295,0.555c0.489,0.155,0.982,0.31,1.486,0.464c0.501,0.157,0.999,0.329,1.486,0.519
		c0.487,0.188,0.918,0.423,1.293,0.705c0.375,0.281,0.681,0.625,0.917,1.032c0.231,0.408,0.351,0.903,0.351,1.485
		c0,0.631-0.113,1.219-0.336,1.763c-0.225,0.544-0.555,1.012-0.988,1.411c-0.435,0.398-0.968,0.713-1.601,0.946
		c-0.636,0.233-1.362,0.349-2.184,0.349c-1.023,0-1.906-0.163-2.647-0.486c-0.743-0.326-1.405-0.751-1.991-1.275l0.321-0.496
		c0.05-0.074,0.105-0.134,0.169-0.173c0.062-0.038,0.148-0.059,0.256-0.059c0.126,0,0.281,0.08,0.46,0.231
		c0.181,0.158,0.423,0.325,0.724,0.505c0.303,0.179,0.677,0.347,1.12,0.501s0.993,0.233,1.646,0.233
		c0.615,0,1.155-0.084,1.624-0.256c0.469-0.169,0.858-0.399,1.172-0.688c0.312-0.295,0.549-0.635,0.709-1.029
		c0.161-0.392,0.241-0.806,0.241-1.243c0-0.484-0.117-0.889-0.353-1.207c-0.233-0.321-0.541-0.593-0.92-0.815
		c-0.382-0.225-0.813-0.412-1.296-0.568s-0.98-0.311-1.485-0.465c-0.508-0.154-1.003-0.326-1.486-0.51s-0.914-0.417-1.296-0.698
		c-0.379-0.282-0.687-0.624-0.92-1.026c-0.237-0.404-0.354-0.905-0.354-1.509c0-0.515,0.112-1.007,0.337-1.483
		c0.223-0.477,0.543-0.894,0.96-1.252c0.414-0.357,0.917-0.645,1.514-0.858c0.597-0.213,1.265-0.32,2.006-0.32
		c0.887,0,1.673,0.126,2.362,0.378c0.689,0.255,1.314,0.64,1.882,1.163L49.03,210.115z"/>
	<linearGradient id="SVGID_6_" gradientUnits="userSpaceOnUse" x1="53.4644" y1="218.0049" x2="65.6543" y2="218.0049">
		<stop  offset="0.0197" style="stop-color:#00A588"/>
		<stop  offset="0.3399" style="stop-color:#00A588"/>
	</linearGradient>
	<path fill="url(#SVGID_6_)" d="M54.811,210.93c0.645-0.872,1.397-1.566,2.26-2.079c0.864-0.517,1.833-0.772,2.905-0.772
		c1.787,0,3.179,0.615,4.178,1.85c1.002,1.231,1.5,3.08,1.5,5.547c0,1.055-0.138,2.043-0.415,2.959
		c-0.278,0.917-0.689,1.714-1.231,2.388c-0.541,0.675-1.205,1.206-1.989,1.595c-0.786,0.386-1.69,0.582-2.715,0.582
		c-0.985,0-1.839-0.18-2.561-0.539c-0.722-0.357-1.347-0.887-1.873-1.587v7.06h-1.405v-19.606h0.776c0.244,0,0.386,0.12,0.425,0.364
		L54.811,210.93z M54.87,219.649c0.283,0.417,0.578,0.769,0.885,1.057c0.308,0.286,0.631,0.52,0.974,0.697
		c0.34,0.18,0.704,0.31,1.091,0.386c0.383,0.078,0.792,0.118,1.219,0.118c0.858,0,1.612-0.155,2.255-0.467
		c0.642-0.31,1.182-0.748,1.617-1.318c0.434-0.568,0.762-1.246,0.981-2.036c0.218-0.79,0.33-1.662,0.33-2.611
		c0-2.155-0.4-3.739-1.201-4.756c-0.8-1.013-1.945-1.519-3.439-1.519c-0.966,0-1.838,0.247-2.62,0.742
		c-0.78,0.494-1.478,1.185-2.092,2.064V219.649z"/>
	<linearGradient id="SVGID_7_" gradientUnits="userSpaceOnUse" x1="68.7285" y1="215.5449" x2="82.002" y2="215.5449">
		<stop  offset="0.0197" style="stop-color:#00A588"/>
		<stop  offset="0.3399" style="stop-color:#00A588"/>
	</linearGradient>
	<path fill="url(#SVGID_7_)" d="M75.373,208.093c1.043,0,1.979,0.178,2.804,0.53c0.824,0.354,1.519,0.859,2.086,1.506
		c0.565,0.653,0.997,1.434,1.296,2.353c0.295,0.916,0.444,1.943,0.444,3.079c0,1.135-0.149,2.157-0.444,3.07
		c-0.299,0.911-0.73,1.694-1.296,2.344c-0.567,0.652-1.262,1.151-2.086,1.5c-0.825,0.348-1.76,0.523-2.804,0.523
		c-1.042,0-1.977-0.176-2.802-0.523c-0.823-0.349-1.523-0.848-2.094-1.5c-0.569-0.649-1.004-1.433-1.3-2.344
		c-0.299-0.913-0.447-1.936-0.447-3.07c0-1.136,0.148-2.163,0.447-3.079c0.296-0.919,0.731-1.699,1.3-2.353
		c0.571-0.646,1.271-1.151,2.094-1.506C73.396,208.271,74.331,208.093,75.373,208.093z M75.373,221.907
		c0.869,0,1.628-0.148,2.276-0.446c0.649-0.294,1.192-0.721,1.626-1.271c0.433-0.556,0.757-1.222,0.974-2.004
		c0.212-0.782,0.322-1.657,0.322-2.626c0-0.962-0.109-1.835-0.322-2.621c-0.216-0.784-0.541-1.459-0.974-2.016
		c-0.434-0.558-0.977-0.985-1.626-1.29c-0.648-0.298-1.407-0.448-2.276-0.448c-0.867,0-1.626,0.15-2.276,0.448
		c-0.648,0.305-1.191,0.732-1.624,1.29c-0.436,0.557-0.761,1.231-0.98,2.016c-0.219,0.786-0.33,1.659-0.33,2.621
		c0,0.969,0.111,1.844,0.33,2.626c0.219,0.782,0.544,1.448,0.98,2.004c0.433,0.55,0.976,0.977,1.624,1.271
		C73.747,221.759,74.506,221.907,75.373,221.907z"/>
	<linearGradient id="SVGID_8_" gradientUnits="userSpaceOnUse" x1="85.9385" y1="215.4502" x2="97.3999" y2="215.4502">
		<stop  offset="0.0197" style="stop-color:#00A588"/>
		<stop  offset="0.3399" style="stop-color:#00A588"/>
	</linearGradient>
	<path fill="url(#SVGID_8_)" d="M87.271,210.859c0.674-0.836,1.452-1.506,2.334-2.009c0.884-0.507,1.867-0.758,2.948-0.758
		c0.803,0,1.506,0.126,2.117,0.378c0.611,0.255,1.114,0.617,1.515,1.094c0.4,0.475,0.703,1.047,0.908,1.716
		c0.204,0.668,0.307,1.427,0.307,2.271v9.257h-1.404v-9.257c0-1.358-0.314-2.422-0.938-3.194c-0.625-0.771-1.576-1.156-2.855-1.156
		c-0.945,0-1.83,0.237-2.655,0.72c-0.824,0.48-1.558,1.146-2.202,2v10.888h-1.407v-14.482h0.776c0.246,0,0.388,0.12,0.425,0.364
		L87.271,210.859z"/>
	<linearGradient id="SVGID_9_" gradientUnits="userSpaceOnUse" x1="100.9404" y1="215.5664" x2="110.6899" y2="215.5664">
		<stop  offset="0.0197" style="stop-color:#00A588"/>
		<stop  offset="0.3399" style="stop-color:#00A588"/>
	</linearGradient>
	<path fill="url(#SVGID_9_)" d="M110.046,210.115c-0.08,0.138-0.192,0.204-0.338,0.204c-0.107,0-0.246-0.061-0.411-0.183
		c-0.166-0.119-0.386-0.255-0.667-0.407c-0.277-0.148-0.621-0.284-1.032-0.406c-0.409-0.121-0.906-0.183-1.492-0.183
		c-0.526,0-1.007,0.075-1.442,0.225c-0.434,0.151-0.805,0.352-1.112,0.605c-0.308,0.252-0.543,0.547-0.71,0.881
		c-0.165,0.335-0.249,0.686-0.249,1.055c0,0.456,0.117,0.836,0.353,1.135c0.233,0.303,0.539,0.559,0.914,0.771
		c0.377,0.215,0.807,0.398,1.295,0.555c0.487,0.155,0.982,0.31,1.486,0.464c0.501,0.157,0.997,0.329,1.486,0.519
		c0.489,0.188,0.918,0.423,1.295,0.705c0.375,0.281,0.679,0.625,0.912,1.032c0.235,0.408,0.355,0.903,0.355,1.485
		c0,0.631-0.114,1.219-0.338,1.763c-0.225,0.544-0.553,1.012-0.988,1.411c-0.434,0.398-0.968,0.713-1.602,0.946
		c-0.635,0.233-1.361,0.349-2.181,0.349c-1.026,0-1.909-0.163-2.649-0.486c-0.741-0.326-1.405-0.751-1.991-1.275l0.322-0.496
		c0.05-0.074,0.105-0.134,0.169-0.173c0.062-0.038,0.148-0.059,0.253-0.059c0.128,0,0.281,0.08,0.462,0.231
		c0.183,0.158,0.421,0.325,0.724,0.505c0.304,0.179,0.677,0.347,1.119,0.501c0.447,0.154,0.994,0.233,1.648,0.233
		c0.615,0,1.157-0.084,1.626-0.256c0.469-0.169,0.858-0.399,1.17-0.688c0.312-0.295,0.549-0.635,0.708-1.029
		c0.164-0.392,0.246-0.806,0.246-1.243c0-0.484-0.12-0.889-0.353-1.207c-0.235-0.321-0.541-0.593-0.924-0.815
		c-0.377-0.225-0.811-0.412-1.294-0.568c-0.484-0.156-0.978-0.311-1.485-0.465c-0.508-0.154-1.002-0.326-1.485-0.51
		s-0.915-0.417-1.296-0.698c-0.38-0.282-0.688-0.624-0.92-1.026c-0.235-0.404-0.353-0.905-0.353-1.509
		c0-0.515,0.111-1.007,0.336-1.483s0.545-0.894,0.96-1.252c0.412-0.357,0.92-0.645,1.515-0.858c0.593-0.213,1.262-0.32,2.005-0.32
		c0.887,0,1.676,0.126,2.362,0.378c0.687,0.255,1.317,0.64,1.88,1.163L110.046,210.115z"/>
	<linearGradient id="SVGID_10_" gradientUnits="userSpaceOnUse" x1="114.041" y1="212.4219" x2="116.6299" y2="212.4219">
		<stop  offset="0.0197" style="stop-color:#00A588"/>
		<stop  offset="0.3399" style="stop-color:#00A588"/>
	</linearGradient>
	<path fill="url(#SVGID_10_)" d="M116.63,203.333c0,0.175-0.037,0.338-0.111,0.486c-0.073,0.15-0.167,0.285-0.285,0.4
		c-0.116,0.117-0.252,0.211-0.409,0.277c-0.157,0.067-0.322,0.103-0.498,0.103c-0.177,0-0.343-0.035-0.499-0.103
		c-0.155-0.066-0.293-0.16-0.409-0.277c-0.118-0.115-0.211-0.25-0.279-0.4c-0.068-0.148-0.101-0.312-0.101-0.486
		c0-0.173,0.033-0.343,0.101-0.501c0.068-0.162,0.161-0.3,0.279-0.418c0.116-0.115,0.254-0.207,0.409-0.273
		c0.156-0.068,0.322-0.104,0.499-0.104c0.175,0,0.341,0.036,0.498,0.104c0.156,0.066,0.292,0.158,0.409,0.273
		c0.118,0.118,0.212,0.256,0.285,0.418C116.593,202.99,116.63,203.16,116.63,203.333z M116.029,208.325v14.482h-1.39v-14.482
		H116.029z"/>
	<linearGradient id="SVGID_11_" gradientUnits="userSpaceOnUse" x1="120.9922" y1="212.3145" x2="133.1821" y2="212.3145">
		<stop  offset="0.0197" style="stop-color:#00A588"/>
		<stop  offset="0.3399" style="stop-color:#00A588"/>
	</linearGradient>
	<path fill="url(#SVGID_11_)" d="M122.397,210.843c0.633-0.854,1.376-1.524,2.224-2.015c0.848-0.489,1.834-0.735,2.955-0.735
		c0.878,0,1.665,0.16,2.358,0.48c0.691,0.32,1.279,0.78,1.764,1.384c0.48,0.602,0.85,1.34,1.104,2.219
		c0.254,0.877,0.38,1.876,0.38,2.989c0,1.177-0.143,2.246-0.423,3.212c-0.284,0.966-0.695,1.79-1.238,2.474
		c-0.541,0.686-1.201,1.213-1.983,1.586c-0.782,0.374-1.675,0.562-2.68,0.562c-1.034,0-1.913-0.196-2.641-0.59
		c-0.726-0.392-1.353-0.978-1.88-1.754l-0.103,1.791c-0.029,0.241-0.159,0.362-0.394,0.362h-0.848v-21.177h1.405V210.843z
		 M122.397,219.649c0.565,0.834,1.187,1.419,1.865,1.754c0.677,0.337,1.44,0.504,2.291,0.504c0.868,0,1.626-0.155,2.273-0.467
		c0.652-0.31,1.193-0.755,1.625-1.331c0.434-0.577,0.76-1.279,0.975-2.104c0.214-0.824,0.321-1.753,0.321-2.779
		c0-2-0.4-3.504-1.201-4.513c-0.798-1.009-1.921-1.514-3.365-1.514c-1.036,0-1.938,0.247-2.709,0.742
		c-0.77,0.494-1.46,1.185-2.076,2.064V219.649z"/>
	<linearGradient id="SVGID_12_" gradientUnits="userSpaceOnUse" x1="136.6812" y1="212.4219" x2="139.271" y2="212.4219">
		<stop  offset="0.0197" style="stop-color:#00A588"/>
		<stop  offset="0.3399" style="stop-color:#00A588"/>
	</linearGradient>
	<path fill="url(#SVGID_12_)" d="M139.271,203.333c0,0.175-0.038,0.338-0.111,0.486c-0.072,0.15-0.167,0.285-0.285,0.4
		c-0.116,0.117-0.253,0.211-0.409,0.277c-0.156,0.067-0.322,0.103-0.497,0.103c-0.178,0-0.343-0.035-0.499-0.103
		c-0.155-0.066-0.291-0.16-0.409-0.277c-0.115-0.115-0.211-0.25-0.279-0.4c-0.068-0.148-0.101-0.312-0.101-0.486
		c0-0.173,0.033-0.343,0.101-0.501c0.068-0.162,0.164-0.3,0.279-0.418c0.118-0.115,0.254-0.207,0.409-0.273
		c0.156-0.068,0.321-0.104,0.499-0.104c0.175,0,0.341,0.036,0.497,0.104c0.155,0.066,0.293,0.158,0.409,0.273
		c0.118,0.118,0.213,0.256,0.285,0.418C139.233,202.99,139.271,203.16,139.271,203.333z M138.67,208.325v14.482h-1.391v-14.482
		H138.67z"/>
	<linearGradient id="SVGID_13_" gradientUnits="userSpaceOnUse" x1="143.7622" y1="212.2188" x2="145.1675" y2="212.2188">
		<stop  offset="0.0197" style="stop-color:#00A588"/>
		<stop  offset="0.3399" style="stop-color:#00A588"/>
	</linearGradient>
	<path fill="url(#SVGID_13_)" d="M145.167,201.631v21.177h-1.405v-21.177H145.167z"/>
	<linearGradient id="SVGID_14_" gradientUnits="userSpaceOnUse" x1="149.6616" y1="212.4219" x2="152.2515" y2="212.4219">
		<stop  offset="0.0197" style="stop-color:#00A588"/>
		<stop  offset="0.3399" style="stop-color:#00A588"/>
	</linearGradient>
	<path fill="url(#SVGID_14_)" d="M152.251,203.333c0,0.175-0.036,0.338-0.11,0.486c-0.072,0.15-0.169,0.285-0.285,0.4
		c-0.118,0.117-0.256,0.211-0.411,0.277c-0.154,0.067-0.321,0.103-0.497,0.103c-0.177,0-0.343-0.035-0.497-0.103
		c-0.157-0.066-0.295-0.16-0.41-0.277c-0.116-0.115-0.21-0.25-0.279-0.4c-0.068-0.148-0.101-0.312-0.101-0.486
		c0-0.173,0.033-0.343,0.101-0.501c0.069-0.162,0.163-0.3,0.279-0.418c0.115-0.115,0.253-0.207,0.41-0.273
		c0.154-0.068,0.32-0.104,0.497-0.104c0.176,0,0.343,0.036,0.497,0.104c0.155,0.066,0.293,0.158,0.411,0.273
		c0.115,0.118,0.212,0.256,0.285,0.418C152.216,202.99,152.251,203.16,152.251,203.333z M151.653,208.325v14.482h-1.393v-14.482
		H151.653z"/>
	<linearGradient id="SVGID_15_" gradientUnits="userSpaceOnUse" x1="155.0029" y1="213.1436" x2="163.7852" y2="213.1436">
		<stop  offset="0.0197" style="stop-color:#00A588"/>
		<stop  offset="0.3399" style="stop-color:#00A588"/>
	</linearGradient>
	<path fill="url(#SVGID_15_)" d="M160.593,223.041c-0.984,0-1.751-0.271-2.305-0.814c-0.553-0.543-0.827-1.384-0.827-2.517v-9.899
		h-2.092c-0.107,0-0.196-0.03-0.264-0.088c-0.068-0.059-0.102-0.14-0.102-0.247v-0.539l2.489-0.175l0.351-5.182
		c0.019-0.087,0.06-0.164,0.115-0.232c0.06-0.068,0.144-0.102,0.25-0.102h0.659v5.529h4.597v1.035h-4.597v9.824
		c0,0.397,0.052,0.741,0.152,1.025c0.103,0.289,0.246,0.523,0.426,0.707c0.181,0.186,0.393,0.32,0.637,0.408
		c0.244,0.086,0.508,0.132,0.79,0.132c0.353,0,0.655-0.053,0.908-0.155c0.253-0.101,0.472-0.212,0.658-0.334
		c0.186-0.12,0.339-0.232,0.455-0.335c0.115-0.101,0.208-0.151,0.275-0.151c0.079,0,0.157,0.048,0.236,0.146l0.382,0.609
		c-0.372,0.406-0.842,0.734-1.414,0.982C161.802,222.918,161.208,223.041,160.593,223.041z"/>
	<linearGradient id="SVGID_16_" gradientUnits="userSpaceOnUse" x1="164.8081" y1="218.1289" x2="178.4038" y2="218.1289">
		<stop  offset="0.0197" style="stop-color:#00A588"/>
		<stop  offset="0.3399" style="stop-color:#00A588"/>
	</linearGradient>
	<path fill="url(#SVGID_16_)" d="M178.404,208.325l-8.37,19.143c-0.06,0.134-0.136,0.245-0.229,0.334
		c-0.093,0.086-0.227,0.13-0.402,0.13h-0.995l2.563-5.662l-6.164-13.944h1.156c0.146,0,0.264,0.038,0.353,0.107
		c0.086,0.075,0.146,0.153,0.175,0.242l4.9,11.267c0.059,0.146,0.111,0.295,0.154,0.444c0.045,0.151,0.087,0.304,0.126,0.457
		c0.048-0.153,0.1-0.306,0.153-0.457c0.054-0.149,0.109-0.299,0.169-0.444l4.842-11.267c0.05-0.107,0.118-0.191,0.207-0.254
		c0.089-0.063,0.184-0.096,0.293-0.096H178.404z"/>
	<linearGradient id="SVGID_17_" gradientUnits="userSpaceOnUse" x1="188.1089" y1="212.4219" x2="190.6987" y2="212.4219">
		<stop  offset="0.0197" style="stop-color:#00A588"/>
		<stop  offset="0.3399" style="stop-color:#00A588"/>
	</linearGradient>
	<path fill="url(#SVGID_17_)" d="M190.699,203.333c0,0.175-0.037,0.338-0.112,0.486c-0.072,0.15-0.167,0.285-0.285,0.4
		c-0.115,0.117-0.253,0.211-0.409,0.277c-0.156,0.067-0.321,0.103-0.497,0.103c-0.177,0-0.342-0.035-0.499-0.103
		c-0.155-0.066-0.293-0.16-0.409-0.277c-0.117-0.115-0.209-0.25-0.278-0.4c-0.068-0.148-0.101-0.312-0.101-0.486
		c0-0.173,0.033-0.343,0.101-0.501c0.069-0.162,0.161-0.3,0.278-0.418c0.116-0.115,0.254-0.207,0.409-0.273
		c0.157-0.068,0.322-0.104,0.499-0.104c0.176,0,0.341,0.036,0.497,0.104c0.156,0.066,0.294,0.158,0.409,0.273
		c0.117,0.118,0.213,0.256,0.285,0.418C190.662,202.99,190.699,203.16,190.699,203.333z M190.099,208.325v14.482h-1.392v-14.482
		H190.099z"/>
	<linearGradient id="SVGID_18_" gradientUnits="userSpaceOnUse" x1="195.0601" y1="215.4502" x2="206.5186" y2="215.4502">
		<stop  offset="0.0197" style="stop-color:#00A588"/>
		<stop  offset="0.3399" style="stop-color:#00A588"/>
	</linearGradient>
	<path fill="url(#SVGID_18_)" d="M196.391,210.859c0.675-0.836,1.452-1.506,2.336-2.009c0.88-0.507,1.865-0.758,2.948-0.758
		c0.801,0,1.504,0.126,2.113,0.378c0.61,0.255,1.116,0.617,1.516,1.094c0.4,0.475,0.704,1.047,0.909,1.716
		c0.206,0.668,0.306,1.427,0.306,2.271v9.257h-1.403v-9.257c0-1.358-0.314-2.422-0.938-3.194c-0.625-0.771-1.578-1.156-2.853-1.156
		c-0.947,0-1.833,0.237-2.658,0.72c-0.824,0.48-1.558,1.146-2.202,2v10.888h-1.405v-14.482h0.774c0.248,0,0.388,0.12,0.425,0.364
		L196.391,210.859z"/>
	<linearGradient id="SVGID_19_" gradientUnits="userSpaceOnUse" x1="217.4946" y1="213.1436" x2="226.2764" y2="213.1436">
		<stop  offset="0.0197" style="stop-color:#00A588"/>
		<stop  offset="0.3399" style="stop-color:#00A588"/>
	</linearGradient>
	<path fill="url(#SVGID_19_)" d="M223.085,223.041c-0.986,0-1.753-0.271-2.304-0.814c-0.553-0.543-0.827-1.384-0.827-2.517v-9.899
		h-2.094c-0.108,0-0.194-0.03-0.263-0.088c-0.07-0.059-0.103-0.14-0.103-0.247v-0.539l2.488-0.175l0.353-5.182
		c0.02-0.087,0.058-0.164,0.116-0.232c0.058-0.068,0.143-0.102,0.25-0.102h0.658v5.529h4.597v1.035h-4.597v9.824
		c0,0.397,0.052,0.741,0.152,1.025c0.104,0.289,0.246,0.523,0.427,0.707c0.177,0.186,0.392,0.32,0.635,0.408
		c0.244,0.086,0.506,0.132,0.791,0.132c0.349,0,0.652-0.053,0.907-0.155c0.252-0.101,0.473-0.212,0.659-0.334
		c0.184-0.12,0.336-0.232,0.454-0.335c0.116-0.101,0.209-0.151,0.277-0.151c0.078,0,0.156,0.048,0.234,0.146l0.38,0.609
		c-0.37,0.406-0.842,0.734-1.413,0.982C224.293,222.918,223.7,223.041,223.085,223.041z"/>
	<linearGradient id="SVGID_20_" gradientUnits="userSpaceOnUse" x1="228.207" y1="215.5449" x2="240.563" y2="215.5449">
		<stop  offset="0.0197" style="stop-color:#00A588"/>
		<stop  offset="0.3399" style="stop-color:#00A588"/>
	</linearGradient>
	<path fill="url(#SVGID_20_)" d="M229.583,214.992v0.274c0,1.088,0.127,2.046,0.381,2.871c0.253,0.822,0.615,1.517,1.081,2.073
		c0.469,0.557,1.036,0.978,1.699,1.258c0.667,0.283,1.405,0.424,2.224,0.424c0.734,0,1.368-0.081,1.905-0.241
		c0.537-0.159,0.988-0.339,1.352-0.539c0.369-0.197,0.657-0.378,0.873-0.538c0.214-0.16,0.369-0.239,0.466-0.239
		c0.13,0,0.228,0.047,0.295,0.146l0.381,0.464c-0.233,0.291-0.545,0.563-0.93,0.815c-0.386,0.252-0.815,0.468-1.288,0.647
		c-0.475,0.18-0.98,0.324-1.522,0.432c-0.543,0.104-1.088,0.158-1.63,0.158c-0.997,0-1.905-0.174-2.724-0.518
		c-0.82-0.343-1.521-0.846-2.109-1.506c-0.586-0.661-1.036-1.467-1.354-2.423c-0.318-0.957-0.477-2.052-0.477-3.285
		c0-1.036,0.15-1.995,0.448-2.872c0.297-0.879,0.727-1.635,1.29-2.271c0.562-0.636,1.247-1.132,2.063-1.491
		c0.815-0.359,1.738-0.539,2.771-0.539c0.82,0,1.582,0.142,2.284,0.424c0.704,0.28,1.313,0.688,1.831,1.229
		c0.515,0.539,0.922,1.2,1.221,1.986c0.299,0.784,0.448,1.688,0.448,2.707c0,0.213-0.032,0.359-0.087,0.437
		c-0.06,0.077-0.158,0.116-0.295,0.116H229.583z M239.302,214.104c0-0.776-0.109-1.472-0.328-2.088
		c-0.22-0.617-0.528-1.139-0.931-1.564c-0.397-0.428-0.876-0.755-1.425-0.981c-0.554-0.229-1.16-0.343-1.823-0.343
		c-0.75,0-1.425,0.115-2.02,0.349c-0.597,0.233-1.11,0.567-1.543,1.004c-0.438,0.438-0.785,0.962-1.049,1.572
		c-0.264,0.611-0.438,1.297-0.526,2.052H239.302z"/>
	<linearGradient id="SVGID_21_" gradientUnits="userSpaceOnUse" x1="243.4736" y1="215.5449" x2="254.7124" y2="215.5449">
		<stop  offset="0.0197" style="stop-color:#00A588"/>
		<stop  offset="0.3399" style="stop-color:#00A588"/>
	</linearGradient>
	<path fill="url(#SVGID_21_)" d="M254.143,210.261c-0.049,0.051-0.095,0.092-0.137,0.124c-0.043,0.034-0.108,0.052-0.184,0.052
		c-0.097,0-0.229-0.065-0.396-0.196c-0.166-0.132-0.39-0.276-0.673-0.43c-0.283-0.156-0.638-0.298-1.061-0.431
		c-0.425-0.13-0.94-0.194-1.545-0.194c-0.837,0-1.58,0.148-2.232,0.442c-0.646,0.298-1.198,0.72-1.643,1.273
		c-0.45,0.553-0.792,1.223-1.019,2.009c-0.229,0.787-0.343,1.67-0.343,2.65c0,1.02,0.119,1.92,0.357,2.707
		c0.237,0.785,0.58,1.448,1.018,1.986c0.438,0.539,0.971,0.949,1.594,1.231c0.626,0.281,1.318,0.422,2.079,0.422
		c0.701,0,1.292-0.084,1.764-0.247c0.472-0.166,0.862-0.346,1.169-0.54c0.309-0.195,0.551-0.373,0.727-0.538
		c0.175-0.166,0.323-0.247,0.439-0.247c0.115,0,0.212,0.047,0.292,0.146l0.363,0.464c-0.222,0.291-0.508,0.563-0.846,0.815
		c-0.344,0.252-0.729,0.472-1.16,0.655c-0.429,0.185-0.894,0.328-1.395,0.43c-0.503,0.102-1.029,0.152-1.572,0.152
		c-0.929,0-1.776-0.166-2.54-0.501c-0.766-0.335-1.426-0.821-1.977-1.457s-0.982-1.415-1.29-2.335
		c-0.305-0.923-0.46-1.971-0.46-3.145c0-1.106,0.146-2.115,0.439-3.029c0.292-0.911,0.72-1.696,1.288-2.356
		c0.567-0.661,1.258-1.172,2.071-1.535c0.813-0.365,1.748-0.547,2.802-0.547c0.947,0,1.785,0.151,2.518,0.452
		c0.732,0.3,1.37,0.708,1.917,1.221L254.143,210.261z"/>
	<linearGradient id="SVGID_22_" gradientUnits="userSpaceOnUse" x1="258.1523" y1="212.2188" x2="269.6138" y2="212.2188">
		<stop  offset="0.0197" style="stop-color:#00A588"/>
		<stop  offset="0.3399" style="stop-color:#00A588"/>
	</linearGradient>
	<path fill="url(#SVGID_22_)" d="M259.56,210.771c0.672-0.814,1.44-1.465,2.305-1.953c0.862-0.484,1.83-0.726,2.904-0.726
		c0.801,0,1.507,0.126,2.116,0.378c0.609,0.255,1.113,0.617,1.514,1.094c0.401,0.475,0.704,1.047,0.905,1.716
		c0.209,0.668,0.31,1.427,0.31,2.271v9.257h-1.407v-9.257c0-1.358-0.312-2.422-0.937-3.194c-0.624-0.771-1.575-1.156-2.853-1.156
		c-0.949,0-1.832,0.237-2.657,0.72c-0.826,0.48-1.561,1.146-2.201,2v10.888h-1.407v-21.177h1.407V210.771z"/>
	<linearGradient id="SVGID_23_" gradientUnits="userSpaceOnUse" x1="274.2524" y1="215.4502" x2="285.7109" y2="215.4502">
		<stop  offset="0.0197" style="stop-color:#00A588"/>
		<stop  offset="0.3399" style="stop-color:#00A588"/>
	</linearGradient>
	<path fill="url(#SVGID_23_)" d="M275.585,210.859c0.672-0.836,1.45-1.506,2.334-2.009c0.88-0.507,1.862-0.758,2.946-0.758
		c0.802,0,1.507,0.126,2.116,0.378c0.609,0.255,1.111,0.617,1.512,1.094c0.401,0.475,0.706,1.047,0.911,1.716
		c0.203,0.668,0.306,1.427,0.306,2.271v9.257h-1.402v-9.257c0-1.358-0.314-2.422-0.938-3.194c-0.626-0.771-1.577-1.156-2.856-1.156
		c-0.941,0-1.83,0.237-2.655,0.72c-0.823,0.48-1.558,1.146-2.203,2v10.888h-1.403v-14.482h0.773c0.246,0,0.386,0.12,0.425,0.364
		L275.585,210.859z"/>
	<linearGradient id="SVGID_24_" gradientUnits="userSpaceOnUse" x1="289.4727" y1="215.5449" x2="302.7461" y2="215.5449">
		<stop  offset="0.0197" style="stop-color:#00A588"/>
		<stop  offset="0.3399" style="stop-color:#00A588"/>
	</linearGradient>
	<path fill="url(#SVGID_24_)" d="M296.117,208.093c1.042,0,1.979,0.178,2.803,0.53c0.823,0.354,1.519,0.859,2.088,1.506
		c0.563,0.653,0.993,1.434,1.293,2.353c0.298,0.916,0.445,1.943,0.445,3.079c0,1.135-0.147,2.157-0.445,3.07
		c-0.3,0.911-0.729,1.694-1.293,2.344c-0.569,0.652-1.265,1.151-2.088,1.5c-0.824,0.348-1.761,0.523-2.803,0.523
		c-1.044,0-1.979-0.176-2.804-0.523c-0.823-0.349-1.521-0.848-2.091-1.5c-0.572-0.649-1.008-1.433-1.306-2.344
		c-0.295-0.913-0.444-1.936-0.444-3.07c0-1.136,0.149-2.163,0.444-3.079c0.298-0.919,0.733-1.699,1.306-2.353
		c0.569-0.646,1.268-1.151,2.091-1.506C294.139,208.271,295.073,208.093,296.117,208.093z M296.117,221.907
		c0.869,0,1.628-0.148,2.275-0.446c0.648-0.294,1.189-0.721,1.624-1.271c0.434-0.556,0.758-1.222,0.975-2.004
		c0.214-0.782,0.319-1.657,0.319-2.626c0-0.962-0.105-1.835-0.319-2.621c-0.217-0.784-0.541-1.459-0.975-2.016
		c-0.435-0.558-0.976-0.985-1.624-1.29c-0.647-0.298-1.406-0.448-2.275-0.448s-1.628,0.15-2.275,0.448
		c-0.648,0.305-1.191,0.732-1.625,1.29c-0.432,0.557-0.759,1.231-0.982,2.016c-0.219,0.786-0.326,1.659-0.326,2.621
		c0,0.969,0.107,1.844,0.326,2.626c0.224,0.782,0.551,1.448,0.982,2.004c0.434,0.55,0.977,0.977,1.625,1.271
		C294.489,221.759,295.248,221.907,296.117,221.907z"/>
	<linearGradient id="SVGID_25_" gradientUnits="userSpaceOnUse" x1="306.8145" y1="212.2188" x2="308.2217" y2="212.2188">
		<stop  offset="0.0197" style="stop-color:#00A588"/>
		<stop  offset="0.3399" style="stop-color:#00A588"/>
	</linearGradient>
	<path fill="url(#SVGID_25_)" d="M308.222,201.631v21.177h-1.407v-21.177H308.222z"/>
	<linearGradient id="SVGID_26_" gradientUnits="userSpaceOnUse" x1="312.2754" y1="215.5449" x2="325.5469" y2="215.5449">
		<stop  offset="0.0197" style="stop-color:#00A588"/>
		<stop  offset="0.3399" style="stop-color:#00A588"/>
	</linearGradient>
	<path fill="url(#SVGID_26_)" d="M318.919,208.093c1.043,0,1.978,0.178,2.801,0.53c0.826,0.354,1.52,0.859,2.087,1.506
		c0.564,0.653,0.996,1.434,1.296,2.353c0.297,0.916,0.444,1.943,0.444,3.079c0,1.135-0.147,2.157-0.444,3.07
		c-0.3,0.911-0.731,1.694-1.296,2.344c-0.567,0.652-1.261,1.151-2.087,1.5c-0.823,0.348-1.758,0.523-2.801,0.523
		c-1.045,0-1.979-0.176-2.804-0.523c-0.827-0.349-1.521-0.848-2.094-1.5c-0.57-0.649-1.004-1.433-1.302-2.344
		c-0.299-0.913-0.444-1.936-0.444-3.07c0-1.136,0.146-2.163,0.444-3.079c0.298-0.919,0.731-1.699,1.302-2.353
		c0.573-0.646,1.267-1.151,2.094-1.506C316.94,208.271,317.874,208.093,318.919,208.093z M318.919,221.907
		c0.866,0,1.625-0.148,2.272-0.446c0.652-0.294,1.192-0.721,1.627-1.271c0.432-0.556,0.759-1.222,0.974-2.004
		c0.212-0.782,0.323-1.657,0.323-2.626c0-0.962-0.111-1.835-0.323-2.621c-0.215-0.784-0.542-1.459-0.974-2.016
		c-0.435-0.558-0.975-0.985-1.627-1.29c-0.647-0.298-1.406-0.448-2.272-0.448c-0.872,0-1.627,0.15-2.278,0.448
		c-0.649,0.305-1.188,0.732-1.622,1.29c-0.436,0.557-0.761,1.231-0.98,2.016c-0.22,0.786-0.331,1.659-0.331,2.621
		c0,0.969,0.111,1.844,0.331,2.626s0.545,1.448,0.98,2.004c0.435,0.55,0.973,0.977,1.622,1.271
		C317.292,221.759,318.047,221.907,318.919,221.907z"/>
	<linearGradient id="SVGID_27_" gradientUnits="userSpaceOnUse" x1="328.167" y1="218.1426" x2="341.1631" y2="218.1426">
		<stop  offset="0.0197" style="stop-color:#00A588"/>
		<stop  offset="0.3399" style="stop-color:#00A588"/>
	</linearGradient>
	<path fill="url(#SVGID_27_)" d="M341.163,208.966v0.481c0,0.212-0.137,0.344-0.412,0.393l-2.223,0.159
		c0.272,0.369,0.483,0.783,0.629,1.235c0.147,0.458,0.221,0.954,0.221,1.486c0,0.699-0.124,1.333-0.373,1.9
		c-0.248,0.567-0.601,1.052-1.053,1.455c-0.457,0.404-1.001,0.717-1.64,0.94c-0.641,0.223-1.344,0.334-2.116,0.334
		c-0.829,0-1.582-0.125-2.268-0.379c-0.409,0.233-0.736,0.507-0.974,0.823c-0.239,0.315-0.361,0.627-0.361,0.939
		c0,0.416,0.152,0.735,0.449,0.959c0.3,0.225,0.688,0.386,1.174,0.488c0.48,0.103,1.03,0.167,1.65,0.196
		c0.621,0.028,1.253,0.061,1.896,0.095c0.643,0.035,1.274,0.093,1.894,0.182c0.622,0.086,1.173,0.238,1.658,0.458
		c0.479,0.219,0.871,0.524,1.168,0.918c0.296,0.392,0.447,0.914,0.447,1.564c0,0.602-0.153,1.181-0.454,1.732
		c-0.305,0.554-0.739,1.043-1.312,1.469c-0.57,0.428-1.261,0.771-2.071,1.029c-0.81,0.255-1.714,0.383-2.72,0.383
		c-1.025,0-1.924-0.104-2.694-0.312c-0.77-0.208-1.414-0.491-1.939-0.844c-0.523-0.355-0.913-0.766-1.178-1.229
		c-0.264-0.468-0.396-0.962-0.396-1.486c0-0.767,0.253-1.424,0.763-1.972c0.507-0.549,1.198-0.979,2.078-1.287
		c-0.487-0.165-0.88-0.407-1.18-0.724c-0.297-0.315-0.447-0.744-0.447-1.287c0-0.203,0.043-0.417,0.118-0.64
		c0.077-0.224,0.195-0.443,0.351-0.664c0.158-0.216,0.348-0.423,0.572-0.619c0.224-0.191,0.48-0.367,0.761-0.522
		c-0.694-0.397-1.231-0.926-1.619-1.586c-0.384-0.659-0.576-1.432-0.576-2.315c0-0.697,0.124-1.33,0.373-1.898
		c0.249-0.569,0.601-1.057,1.062-1.464c0.459-0.407,1.008-0.723,1.646-0.945c0.637-0.224,1.35-0.335,2.128-0.335
		c0.646,0,1.237,0.076,1.78,0.233c0.539,0.155,1.024,0.373,1.457,0.654H341.163z M339.642,223.784c0-0.457-0.12-0.822-0.358-1.098
		c-0.24-0.278-0.559-0.493-0.96-0.649c-0.397-0.154-0.86-0.265-1.381-0.329c-0.522-0.062-1.067-0.107-1.641-0.136
		c-0.569-0.029-1.143-0.06-1.721-0.087c-0.574-0.031-1.114-0.088-1.624-0.175c-0.369,0.144-0.707,0.313-1.023,0.501
		c-0.313,0.19-0.58,0.404-0.806,0.647c-0.225,0.241-0.4,0.507-0.525,0.793c-0.128,0.287-0.19,0.594-0.19,0.925
		c0,0.427,0.106,0.823,0.328,1.187c0.221,0.365,0.544,0.681,0.968,0.946c0.424,0.267,0.945,0.479,1.555,0.634
		c0.617,0.155,1.324,0.234,2.124,0.234c0.74,0,1.434-0.084,2.073-0.248c0.636-0.166,1.195-0.399,1.666-0.7
		c0.475-0.301,0.844-0.66,1.113-1.077S339.642,224.279,339.642,223.784z M334.196,216.404c0.626,0,1.184-0.088,1.669-0.271
		c0.488-0.179,0.897-0.429,1.229-0.749c0.332-0.32,0.587-0.703,0.762-1.149c0.18-0.447,0.267-0.94,0.267-1.485
		c0-0.543-0.091-1.041-0.275-1.491c-0.177-0.453-0.438-0.836-0.775-1.156c-0.334-0.322-0.744-0.569-1.228-0.744
		c-0.482-0.173-1.032-0.261-1.647-0.261s-1.161,0.088-1.646,0.261c-0.482,0.175-0.894,0.422-1.228,0.744
		c-0.339,0.32-0.595,0.703-0.771,1.156c-0.175,0.45-0.261,0.948-0.261,1.491c0,0.545,0.086,1.038,0.261,1.485
		c0.177,0.446,0.433,0.829,0.771,1.149c0.334,0.32,0.745,0.57,1.228,0.749C333.035,216.316,333.581,216.404,334.196,216.404z"/>
	<linearGradient id="SVGID_28_" gradientUnits="userSpaceOnUse" x1="342.5547" y1="218.1289" x2="356.1514" y2="218.1289">
		<stop  offset="0.0197" style="stop-color:#00A588"/>
		<stop  offset="0.3399" style="stop-color:#00A588"/>
	</linearGradient>
	<path fill="url(#SVGID_28_)" d="M356.151,208.325l-8.372,19.143c-0.06,0.134-0.135,0.245-0.229,0.334
		c-0.093,0.086-0.224,0.13-0.403,0.13h-0.993l2.563-5.662l-6.162-13.944h1.155c0.147,0,0.264,0.038,0.353,0.107
		c0.089,0.075,0.146,0.153,0.175,0.242l4.902,11.267c0.059,0.146,0.111,0.295,0.155,0.444c0.043,0.151,0.087,0.304,0.124,0.457
		c0.048-0.153,0.1-0.306,0.15-0.457c0.055-0.149,0.113-0.299,0.171-0.444l4.845-11.267c0.048-0.107,0.116-0.191,0.205-0.254
		c0.087-0.063,0.185-0.096,0.29-0.096H356.151z"/>
</g>
</svg>
